<?xml version="1.0" encoding="UTF-8"?>
<svg id="Layer_2" data-name="Layer 2" xmlns="http://www.w3.org/2000/svg" viewBox="0 0 57.79 58.28">
  <defs>
    <style>
      .cls-1 {
        fill: #f44702;
        stroke-width: 0px;
      }
    </style>
  </defs>
  <g id="Layer_1-2" data-name="Layer 1">
    <g>
      <path class="cls-1" d="M45.02,4.72l-6.4,24.42h6.66c2.87,0,5.38-1.94,6.11-4.72L57.79,0h-6.66C48.26,0,45.75,1.94,45.02,4.72Z"/>
      <path class="cls-1" d="M35.69,0c-2.87,0-5.38,1.94-6.11,4.72l-13.12,49.88c-.41,1.56-1.4,2.84-2.68,3.68h8.33c2.87,0,5.38-1.94,6.11-4.72L41.4,3.59c.39-1.51,1.32-2.75,2.54-3.59h-8.25Z"/>
      <path class="cls-1" d="M6.53,33.38L0,58.28h6.64c2.88,0,5.4-1.94,6.13-4.73l6.4-24.41h-7.15c-2.58,0-4.84,1.74-5.49,4.24Z"/>
    </g>
  </g>
</svg>