<?xml version="1.0" encoding="UTF-8"?>
<svg id="Layer_2" data-name="Layer 2" xmlns="http://www.w3.org/2000/svg" viewBox="0 0 119.73 35.89">
  <defs>
    <style>
      .cls-1 {
        fill: #1a1a1a;
      }

      .cls-1, .cls-2 {
        stroke-width: 0px;
      }

      .cls-2 {
        fill: #f44702;
      }
    </style>
  </defs>
  <g id="Layer_1-2" data-name="Layer 1">
    <g>
      <path class="cls-1" d="M43.7,28.43c-1.69,0-3.15-.25-4.37-.74-1.22-.49-2.17-1.24-2.84-2.24-.67-1-1.05-2.28-1.12-3.83h5.46c.11.96.42,1.67.93,2.13.51.46,1.2.68,2.06.68.43,0,.85-.05,1.24-.15.4-.1.72-.28.97-.54.25-.26.38-.62.38-1.07,0-.37-.09-.68-.28-.91-.19-.23-.46-.43-.81-.59-.35-.16-.78-.31-1.29-.45-.5-.14-1.08-.3-1.71-.5-1.13-.34-2.18-.74-3.16-1.23-.98-.48-1.77-1.12-2.37-1.93-.6-.8-.9-1.86-.9-3.17,0-1.96.72-3.41,2.15-4.36,1.44-.95,3.32-1.42,5.65-1.42,1.37,0,2.6.19,3.69.56,1.09.37,2,1.03,2.71,1.98.71.95,1.17,2.29,1.38,4.02l-5.42-.04c-.11-.77-.29-1.34-.56-1.72-.26-.38-.56-.63-.9-.76-.34-.13-.68-.19-1.05-.19-.41,0-.78.07-1.11.2-.33.13-.59.32-.78.58s-.29.57-.29.95c0,.46.14.85.43,1.17.29.32.73.61,1.32.86.59.25,1.34.5,2.25.75.6.16,1.28.35,2.03.58.75.23,1.47.55,2.16.95s1.26.96,1.71,1.66.68,1.6.68,2.7c0,1.92-.74,3.41-2.22,4.48-1.48,1.06-3.49,1.59-6.04,1.59Z"/>
      <path class="cls-1" d="M53.36,35.89v-4.76h2.14c.86,0,1.53-.07,1.98-.21.46-.14.8-.34,1.02-.59.22-.26.4-.56.53-.91.16-.41.31-.71.45-.9.14-.19.33-.32.56-.4h-2.18l-6.54-19.66h6.05l2.61,10.5.9,3.82h.16l.83-3.8,2.5-10.52h6.02l-6.23,19.66c-.38,1.2-.82,2.28-1.3,3.24-.48.96-1.05,1.78-1.71,2.45-.66.67-1.45,1.19-2.38,1.54-.93.35-2.02.53-3.28.53h-2.14Z"/>
      <path class="cls-1" d="M86.91,9.79c-1.09-1.16-2.53-1.74-4.32-1.74-1.38,0-2.49.3-3.32.9-.83.6-1.46,1.38-1.88,2.35-.35.81-.6,1.66-.76,2.54l-.34-5.38h-5.01v19.66h5.62v-13.04c.31-.66.76-1.23,1.35-1.72s1.27-.73,2.04-.73c.54,0,1.01.12,1.41.36.4.24.7.69.92,1.34.22.66.32,1.61.32,2.86v10.94h5.6v-13.03c0-2.38-.54-4.15-1.63-5.31Z"/>
      <path class="cls-1" d="M100.08,23.76c-.4.02-.9.04-1.5.04s-1.01-.16-1.22-.49c-.21-.32-.32-.91-.32-1.75v-8.74h4.05v-4.36h-4.05V2.83h-4.56l-1,5.64h-2.12v4.36h3.57c-.47.08-.83.27-1.09.56-.26.29-.39.66-.39,1.12l.05,8.79c.01,1.73.47,3.01,1.37,3.83.9.82,2.16,1.23,3.78,1.23.89,0,1.76-.01,2.62-.04.86-.02,1.5-.11,1.94-.27v-4.41c-.36.06-.74.1-1.14.13Z"/>
      <path class="cls-1" d="M118.1,9.79c-1.09-1.16-2.52-1.74-4.3-1.74-1.39,0-2.52.3-3.38.9-.86.6-1.51,1.38-1.95,2.35-.42.91-.7,1.87-.85,2.89v-.12s.29-5.6.29-5.6V0h-5.46v28.12h5.62v-12.99c.36-.74.84-1.35,1.42-1.81.59-.46,1.23-.69,1.93-.69.97,0,1.66.35,2.07,1.05.41.7.61,1.87.61,3.51v10.94h5.62v-13.03c0-2.38-.54-4.15-1.63-5.31Z"/>
    </g>
    <g>
      <path class="cls-2" d="M22.01,5.51l-3.13,11.94h3.25c1.4,0,2.63-.95,2.99-2.31l3.13-11.94h-3.25c-1.4,0-2.63.95-2.99,2.31Z"/>
      <path class="cls-2" d="M17.45,3.21c-1.4,0-2.63.95-2.99,2.31l-6.41,24.38c-.2.76-.68,1.39-1.31,1.8h4.07c1.4,0,2.63-.95,2.99-2.31l6.44-24.43c.19-.74.65-1.34,1.24-1.75h-4.03Z"/>
      <path class="cls-2" d="M3.19,19.52L0,31.69h3.25c1.41,0,2.64-.95,3-2.31l3.13-11.93h-3.49c-1.26,0-2.36.85-2.68,2.07Z"/>
    </g>
  </g>
</svg>